<?xml version="1.0" encoding="UTF-8"?>
<svg width="87px" height="87px" viewBox="0 0 87 87" version="1.1" xmlns="http://www.w3.org/2000/svg" xmlns:xlink="http://www.w3.org/1999/xlink">
    <!-- Generator: Sketch 59.1 (86144) - https://sketch.com -->
    <title>画板</title>
    <desc>Created with Sketch.</desc>
    <g id="画板" stroke="none" stroke-width="1" fill="none" fill-rule="evenodd">
        <g id="编组" transform="translate(13.800000, 14.400000)" fill="#515151" fill-rule="nonzero">
            <path d="M11.0516016,58.1621484 C9.74085937,58.1621484 8.68617187,57.1083398 8.68617187,55.8020508 C8.68617187,54.5136914 9.74091797,53.4577148 11.0516016,53.4577148 L16.5258398,53.4577148 L16.5258398,50.8620703 C16.5258398,50.2099805 16.7592187,49.6567383 17.1610547,49.2201562 L17.2620117,49.0867969 C17.7309961,48.6356836 18.3302344,48.3495117 19.0372266,48.3495117 L27.3932813,48.3495117 L27.3932813,9.73962891 C26.6056055,9.92355469 25.8535547,10.1402344 25.1173242,10.4588672 C24.4261523,10.7585742 23.7571289,11.1266016 23.1086133,11.5464844 C22.4869336,11.9998242 21.8673633,12.5013867 21.3489258,13.0547461 C20.0067188,14.3608008 18.4019531,15.4304297 16.6243359,16.1688281 C15.7400977,16.5368555 14.8199414,16.8544922 13.8120703,17.0720508 C13.4416992,17.1404883 13.0601953,17.1888867 12.7055273,17.2562109 L18.7654102,35.7761719 C19.0885547,35.892832 19.4073633,36.0757617 19.6722656,36.3609375 C20.5744336,37.2676172 20.5744336,38.7725391 19.6722656,39.6601172 C18.5320313,40.8159961 17.1314648,41.7699023 15.5872852,42.4231055 L15.5872852,42.4231055 C14.0835938,43.0075195 12.4698633,43.3613086 10.7977148,43.3613086 C9.08958984,43.3613086 7.44896484,43.0075781 5.97667969,42.4231055 L5.83974609,42.3567773 C4.3359375,41.7036328 2.99607422,40.8159375 1.88964844,39.6601172 C0.971601563,38.7724219 0.971601563,37.2675586 1.88964844,36.3609375 C2.15666016,36.0757617 2.45976563,35.8928906 2.79421875,35.7761719 L8.88791016,17.2235742 C8.5715625,17.173125 8.28621094,17.1406641 7.98333984,17.0721094 C6.97998047,16.8545508 6.04189453,16.5368555 5.17330078,16.1688867 C4.2665625,15.8332031 3.41367188,15.3642773 2.65951172,14.8446094 C1.85619141,14.3249414 1.11996094,13.7066602 0.451054688,13.0548047 C-0.0830273437,12.4688086 -0.0830273437,11.546543 0.451054688,11.0436914 C1.00318359,10.4589258 1.92333984,10.4589258 2.45994141,11.0436914 C2.99625,11.546543 3.59994141,12.0649219 4.21957031,12.5014453 C4.87265625,12.9200977 5.53699219,13.305 6.24416016,13.6057617 C6.96445313,13.8907031 7.71873047,14.1264258 8.50423828,14.2925977 C9.260625,14.4429492 10.0619531,14.5272656 10.90125,14.5272656 C11.7183398,14.5272656 12.5262891,14.4430078 13.2759961,14.2925977 C14.043457,14.1264844 14.8201758,13.8907617 15.5562891,13.6057617 C16.9589648,13.02 18.2495508,12.1154297 19.3402734,11.04375 L19.3717383,11.0111719 C20.0405273,10.3423828 20.7431836,9.73980469 21.5488477,9.22013672 C22.2849609,8.70058594 23.1558984,8.26400391 24.0267187,7.89603516 C24.9291211,7.49537109 25.8672656,7.19349609 26.8368164,7.02509766 L27.393457,6.89144531 L27.393457,2.42162109 C27.393457,1.11544922 28.479668,0.0424804687 29.7837305,0.0424804687 C31.074375,0.0424804687 32.13375,1.11539062 32.13375,2.42162109 L32.13375,6.89144531 L32.6992969,7.02509766 C33.6688477,7.19349609 34.6251562,7.49537109 35.5138477,7.89603516 C36.4160742,8.26417969 37.2555469,8.70064453 38.0276953,9.22013672 C38.7953906,9.73980469 39.5449219,10.3581445 40.2002344,11.04375 C40.7569922,11.5466016 41.3405273,12.0649805 41.9779102,12.5015039 C42.6466992,12.9201562 43.3156641,13.3050586 44.0045508,13.6058203 C44.7206836,13.8907617 45.4792969,14.1264844 46.2603516,14.2926562 C47.0369531,14.4430078 47.8045312,14.5273242 48.6417188,14.5273242 C49.4788477,14.5273242 50.2824609,14.4430664 51.0185742,14.2926562 C51.8218359,14.126543 52.558125,13.8908203 53.2942383,13.6058203 C54.7038281,13.0200586 55.9921875,12.1154883 57.0783984,11.0438086 C57.6305859,10.459043 58.5550781,10.459043 59.0894531,11.0438086 C59.6237109,11.5466602 59.6237109,12.4689258 59.0894531,13.0549219 C57.7517578,14.3609766 56.1762305,15.4306055 54.3850781,16.1690039 C53.4963867,16.5370312 52.558125,16.854668 51.5728711,17.0722266 C51.2855859,17.1406641 50.9825391,17.1731836 50.6504297,17.2236914 L56.759707,35.7762891 C57.0785156,35.8929492 57.3793359,36.0758789 57.6507422,36.3610547 C58.5890039,37.2677344 58.5890039,38.7726562 57.6507422,39.6602344 C56.5128516,40.8161133 55.1235937,41.7700195 53.5635937,42.4232227 C52.0911914,43.0076367 50.448457,43.3614258 48.7561523,43.3614258 C47.0683594,43.3614258 45.46125,43.0076953 43.9685742,42.4232227 L43.8495703,42.3568945 C42.3279492,41.70375 41.0036719,40.8160547 39.8837695,39.6602344 C38.9657227,38.7725391 38.9657227,37.2676758 39.8837695,36.3610547 C40.1375391,36.0758789 40.4695312,35.8930078 40.7704102,35.7762891 L46.8662109,17.2563281 C46.4622656,17.1890039 46.0988086,17.1406055 45.7262109,17.072168 C44.740957,16.8546094 43.7869336,16.5369141 42.9161719,16.1689453 C42.0117187,15.8332617 41.1588867,15.3643359 40.4023242,14.844668 C39.6303516,14.325 38.8627734,13.7067187 38.2297852,13.0548633 C37.6550977,12.5015039 37.0716797,11.9999414 36.4161328,11.5466016 C35.7832617,11.1267773 35.1100195,10.75875 34.4051367,10.4589844 C33.7072852,10.140293 32.9328516,9.92367187 32.1338086,9.73974609 L32.1338086,9.73974609 L32.1338086,48.3496289 L40.5055664,48.3496289 C41.1901758,48.3496289 41.8408594,48.6357422 42.2743359,49.0869141 C42.7501758,49.5233789 43.0125,50.1765234 43.0125,50.8621875 L43.0125,53.457832 L48.5092383,53.457832 C49.8108398,53.457832 50.8522266,54.5138086 50.8522266,55.802168 C50.8522266,57.1083984 49.8107812,58.1621484 48.5092383,58.1621484 L11.0516602,58.1621484 L11.0516016,58.1621484 Z M54.0483398,36.5964258 L54.0483398,36.5964258 L48.7559766,20.4724805 L43.4859961,36.5964258 C44.1504492,37.1991211 44.8864453,37.6682812 45.6587109,38.03625 L45.7620117,38.0531836 C46.6800586,38.4379687 47.7032812,38.6389453 48.7560938,38.6389453 C49.8469336,38.6389453 50.8522852,38.4380273 51.7547461,38.0531836 L51.7905469,38.0531836 C52.5917578,37.7008594 53.3929102,37.2317578 54.0483398,36.5964258 L54.0483398,36.5964258 L54.0483398,36.5964258 Z M16.0543945,36.5964258 L16.0543945,36.5964258 L10.7980664,20.4724805 L5.50570313,36.5964258 C6.14302734,37.1991211 6.87914063,37.6682812 7.68714844,38.03625 L7.78611328,38.0531836 C8.68611328,38.4379687 9.70945313,38.6389453 10.798125,38.6389453 C11.8349414,38.6389453 12.871875,38.4380273 13.7652539,38.0531836 L13.7808984,38.0531836 C14.6000977,37.7008594 15.3857227,37.2317578 16.0545117,36.5964258 L16.0545117,36.5964258 L16.0543945,36.5964258 Z M19.340332,53.4576562 L19.340332,53.4576562 L40.2000586,53.4576562 L40.2000586,51.1953516 C30.4906641,51.1953516 29.3841211,51.1953516 19.340332,51.1953516 L19.340332,53.4576562 Z" id="形状"></path>
        </g>
    </g>
</svg>