<?xml version="1.0" encoding="UTF-8"?>
<svg width="548px" height="137px" viewBox="0 0 548 137" version="1.1" xmlns="http://www.w3.org/2000/svg" xmlns:xlink="http://www.w3.org/1999/xlink">
    <!-- Generator: Sketch 59.1 (86144) - https://sketch.com -->
    <title>画板</title>
    <desc>Created with Sketch.</desc>
    <g id="画板" stroke="none" stroke-width="1" fill="none" fill-rule="evenodd">
        <g id="logo" transform="translate(31.000000, 18.000000)">
            <text id="Wise" fill="#000000" font-family="PingFangSC-Medium, PingFang SC" font-size="72" font-weight="400">
                <tspan x="108.5" y="76.5">Wise</tspan>
            </text>
            <text id="Buyer" fill="#8D6527" font-family="PingFangSC-Regular, PingFang SC" font-size="72" font-weight="normal">
                <tspan x="275.54" y="76.5">Buyer</tspan>
            </text>
            <g id="编组" transform="translate(0.500000, 6.500000)" fill="#8D6527" fill-rule="nonzero">
                <path d="M45,0 C20.14875,0 0,20.1911514 0,45.0946989 C0,68.7288305 18.1575,88.08573 41.250375,90 L41.250375,67.9396733 C34.7388017,68.796139 28.692452,71.7858422 24.0525,76.4434062 L18.750375,71.1301233 C20.7159379,69.1702856 22.892226,67.4348169 25.239375,65.9555066 C17.042625,62.5869326 11.25,54.5082173 11.25,45.0946989 L18.750375,45.0946989 C18.750375,53.3955056 25.466625,60.1258894 33.75,60.1258894 L41.250375,60.1258894 L41.250375,48.8522147 C28.84275,48.8522147 18.750375,38.7386011 18.750375,26.3048652 L26.249625,26.3048652 C26.249625,34.6022898 32.967,41.3371831 41.250375,41.3371831 L41.250375,34.0848281 C41.250375,26.055717 38.13075,18.5034823 32.4675,12.8294418 L37.77075,7.51615893 C41.997375,11.7505512 44.96625,16.7639543 46.749375,22.0851288 C48.30975,19.5237499 50.13,17.1416224 52.236,15.0311905 L57.538125,20.3456008 C53.8270213,24.060788 51.1592011,28.690982 49.80375,33.7691652 C57.421125,33.5053613 64.546875,30.4445586 69.960375,25.0207937 L75.263625,30.3340766 C67.95,37.6664746 58.359375,41.3326736 48.75975,41.3371831 C48.75975,41.4251177 48.7485,41.5085429 48.7485,41.5964776 L48.7485,59.5926446 C55.204875,57.9173765 59.9985,52.0888867 59.9985,45.0935715 L67.5,45.0935715 C67.5,50.5365017 65.566125,55.5296122 62.355375,59.431431 C67.9802713,58.2224041 73.1353346,55.4066631 77.1975,51.3245315 L82.499625,56.6400691 C75.182625,63.9724672 65.588625,67.6409209 55.98675,67.6409209 L48.749625,67.6409209 L48.749625,89.9988726 C71.8425,88.0868574 90,68.7299579 90,45.0946989 C90,20.1922788 69.85125,0 45,0 Z" id="路径"></path>
            </g>
        </g>
        <path d="M510,26 C514.418278,26 518,29.581722 518,34 L518,40 C518,44.418278 514.418278,48 510,48 L478,48 C473.581722,48 470,44.418278 470,40 L470,34 C470,29.581722 473.581722,26 478,26 L510,26 Z M494.352,40.584 C494,40.584 493.696,40.696 493.472,40.952 C493.216,41.192 493.104,41.496 493.104,41.848 C493.104,42.2 493.216,42.488 493.472,42.744 C493.696,42.968 494,43.096 494.352,43.096 C494.704,43.096 494.992,42.968 495.248,42.744 C495.488,42.488 495.616,42.2 495.616,41.848 C495.616,41.496 495.488,41.192 495.248,40.952 C494.992,40.696 494.704,40.584 494.352,40.584 Z M481.12,31.576 L479.712,31.576 C479.328,31.976 478.848,32.344 478.272,32.696 C477.696,33.016 477.152,33.24 476.64,33.368 L476.64,35.224 C477.696,34.92 478.56,34.456 479.248,33.832 L479.248,43 L481.12,43 L481.12,31.576 Z M487.536,31.352 C486.304,31.352 485.312,31.768 484.56,32.6 C483.824,33.384 483.456,34.408 483.44,35.688 L485.312,35.688 C485.344,34.792 485.536,34.104 485.888,33.656 C486.24,33.176 486.768,32.936 487.472,32.936 C488.128,32.936 488.624,33.08 488.96,33.384 C489.28,33.688 489.456,34.152 489.456,34.776 C489.456,35.416 489.2,36.024 488.704,36.584 C488.384,36.92 487.872,37.352 487.136,37.864 C485.808,38.776 484.928,39.48 484.512,39.96 C483.744,40.824 483.376,41.832 483.376,43 L491.344,43 L491.344,41.352 L485.712,41.352 C485.968,40.776 486.672,40.104 487.84,39.336 C488.96,38.584 489.76,37.976 490.208,37.496 C490.944,36.68 491.328,35.784 491.328,34.792 C491.328,33.768 490.976,32.952 490.272,32.312 C489.552,31.672 488.64,31.352 487.536,31.352 Z M501.68,31.576 L500.272,31.576 C499.888,31.976 499.408,32.344 498.832,32.696 C498.256,33.016 497.712,33.24 497.2,33.368 L497.2,35.224 C498.256,34.92 499.12,34.456 499.808,33.832 L499.808,43 L501.68,43 L501.68,31.576 Z M508.096,31.352 C506.864,31.352 505.872,31.768 505.12,32.6 C504.384,33.384 504.016,34.408 504,35.688 L505.872,35.688 C505.904,34.792 506.096,34.104 506.448,33.656 C506.8,33.176 507.328,32.936 508.032,32.936 C508.688,32.936 509.184,33.08 509.52,33.384 C509.84,33.688 510.016,34.152 510.016,34.776 C510.016,35.416 509.76,36.024 509.264,36.584 C508.944,36.92 508.432,37.352 507.696,37.864 C506.368,38.776 505.488,39.48 505.072,39.96 C504.304,40.824 503.936,41.832 503.936,43 L511.904,43 L511.904,41.352 L506.272,41.352 C506.528,40.776 507.232,40.104 508.4,39.336 C509.52,38.584 510.32,37.976 510.768,37.496 C511.504,36.68 511.888,35.784 511.888,34.792 C511.888,33.768 511.536,32.952 510.832,32.312 C510.112,31.672 509.2,31.352 508.096,31.352 Z" id="形状结合" fill="#A3A3A3"></path>
    </g>
</svg>