<?xml version="1.0" encoding="UTF-8"?>
<svg width="558px" height="158px" viewBox="0 0 558 158" version="1.1" xmlns="http://www.w3.org/2000/svg" xmlns:xlink="http://www.w3.org/1999/xlink">
    <!-- Generator: Sketch 59.1 (86144) - https://sketch.com -->
    <title>画板</title>
    <desc>Created with Sketch.</desc>
    <g id="画板" stroke="none" stroke-width="1" fill="none" fill-rule="evenodd">
        <text id="WiseBuyer" font-family="PingFangSC-Semibold, PingFang SC" font-size="72" font-weight="500">
            <tspan x="154.5" y="104.5" fill="#000000">Wise</tspan>
            <tspan x="321.54" y="104.5" font-family="PingFangSC-Regular, PingFang SC" font-weight="normal" fill="#8D6527">Buyer</tspan>
        </text>
        <g id="编组" transform="translate(46.500000, 34.500000)" fill="#8D6527" fill-rule="nonzero">
            <path d="M45,0 C20.14875,0 0,20.1911514 0,45.0946989 C0,68.7288305 18.1575,88.08573 41.250375,90 L41.250375,67.9396733 C34.7388017,68.796139 28.692452,71.7858422 24.0525,76.4434062 L18.750375,71.1301233 C20.7159379,69.1702856 22.892226,67.4348169 25.239375,65.9555066 C17.042625,62.5869326 11.25,54.5082173 11.25,45.0946989 L18.750375,45.0946989 C18.750375,53.3955056 25.466625,60.1258894 33.75,60.1258894 L41.250375,60.1258894 L41.250375,48.8522147 C28.84275,48.8522147 18.750375,38.7386011 18.750375,26.3048652 L26.249625,26.3048652 C26.249625,34.6022898 32.967,41.3371831 41.250375,41.3371831 L41.250375,34.0848281 C41.250375,26.055717 38.13075,18.5034823 32.4675,12.8294418 L37.77075,7.51615893 C41.997375,11.7505512 44.96625,16.7639543 46.749375,22.0851288 C48.30975,19.5237499 50.13,17.1416224 52.236,15.0311905 L57.538125,20.3456008 C53.8270213,24.060788 51.1592011,28.690982 49.80375,33.7691652 C57.421125,33.5053613 64.546875,30.4445586 69.960375,25.0207937 L75.263625,30.3340766 C67.95,37.6664746 58.359375,41.3326736 48.75975,41.3371831 C48.75975,41.4251177 48.7485,41.5085429 48.7485,41.5964776 L48.7485,59.5926446 C55.204875,57.9173765 59.9985,52.0888867 59.9985,45.0935715 L67.5,45.0935715 C67.5,50.5365017 65.566125,55.5296122 62.355375,59.431431 C67.9802713,58.2224041 73.1353346,55.4066631 77.1975,51.3245315 L82.499625,56.6400691 C75.182625,63.9724672 65.588625,67.6409209 55.98675,67.6409209 L48.749625,67.6409209 L48.749625,89.9988726 C71.8425,88.0868574 90,68.7299579 90,45.0946989 C90,20.1922788 69.85125,0 45,0 Z" id="路径"></path>
        </g>
    </g>
</svg>